<svg width="50" height="50" viewBox="0 0 50 50" fill="none" xmlns="http://www.w3.org/2000/svg">
    <!--//skills-->
    <g id="codeSvg">
        <path fill-rule="evenodd" clip-rule="evenodd"
              d="M18.3125 42.0645L27.2623 6.6875L31.4375 7.87241L22.4878 43.3125L18.3125 42.0645Z" fill="#7572D5"/>
        <path fill-rule="evenodd" clip-rule="evenodd"
              d="M13.5025 12.6875L16.5625 15.9278L7.99501 25.0001L16.5625 34.0721L13.5025 37.3125L1.875 25.0001L13.5025 12.6875Z"
              fill="#7572D5"/>
        <path fill-rule="evenodd" clip-rule="evenodd"
              d="M36.4976 12.6875L33.4375 15.9278L42.0051 25.0001L33.4375 34.0721L36.4976 37.3125L48.125 25.0001L36.4976 12.6875Z"
              fill="#7572D5"/>
    </g>
    <g id="css">
        <path d="M38.0508 10.8437L12.946 10.8377L13.3515 15.7547L32.6381 15.7577L32.1519 20.8502H19.5035L19.9608 25.6742H31.7358L31.0392 32.2806L25.4969 33.7886L19.8663 32.2701L19.508 28.3134H14.5359L15.0877 35.5411L25.4969 38.7341L35.7309 35.8652L38.0493 10.8452L38.0508 10.8437ZM5.49844 2.56873H45.4984L41.86 42.9999L25.4542 47.5687L9.13993 42.9968L5.49844 2.56873Z"
              fill="#7572D5"/>
    </g>
    <g id="html5" transform="scale(0.15) translate(24, 30)">
        <path id="XMLID_107_" d="M22.347,0c-2.75,0-4.799,2.241-4.555,4.98l23.184,260.047c0.244,2.739,2.611,5.582,5.262,6.318
		l98.381,27.316c2.65,0.736,6.986,0.736,9.637,0.002l98.68-27.361c2.65-0.735,5.02-3.578,5.264-6.316L281.422,4.98
		c0.246-2.739-1.805-4.98-4.555-4.98H22.347z M232.049,59.641c-0.219,2.443-0.598,6.684-0.842,9.423l-0.611,6.823
		c-0.246,2.738-0.596,6.654-0.781,8.701c-0.184,2.048-0.359,3.723-0.391,3.723c-0.031,0-2.307,0-5.057,0h-69.76
		c-2.75,0-5.023,0-5.053,0s-2.305,0-5.055,0h-36.74c-2.75,0-4.799,2.241-4.555,4.98l2.143,23.955c0.244,2.738,2.695,4.98,5.445,4.98
		H144.5c2.75,0,5.025,0,5.055,0s2.303,0,5.053,0h57.939c2.75,0,7.006,0,9.457,0c2.449,0,4.273,1.999,4.051,4.442
		c-0.223,2.443-0.604,6.685-0.848,9.423l-6.891,77.228c-0.246,2.739-0.557,6.238-0.691,7.776c-0.137,1.537-2.416,3.396-5.066,4.131
		l-58.133,16.119c-2.65,0.734-4.852,1.342-4.893,1.351c-0.041,0.009-2.242-0.586-4.893-1.321l-58.195-16.148
		c-2.65-0.735-5.018-3.578-5.262-6.317l-3.746-42.045c-0.244-2.739,1.807-4.98,4.557-4.98h5.311c2.75,0,7.25,0,10,0h7.92
		c2.75,0,5.199,2.241,5.445,4.98l1.469,16.459c0.244,2.739,2.615,5.566,5.271,6.283l27.221,7.351
		c2.654,0.717,4.836,1.304,4.848,1.304s2.193-0.588,4.848-1.305l27.27-7.369c2.654-0.717,5.027-3.545,5.273-6.283l2.957-32.976
		c0.246-2.739-1.803-4.98-4.553-4.98h-30.666c-2.75,0-5.023,0-5.053,0s-2.305,0-5.055,0H80.511c-2.75,0-5.199-2.242-5.443-4.98
		l-7.256-81.306c-0.244-2.739-0.623-6.979-0.842-9.423c-0.217-2.443,1.854-4.442,4.604-4.442H144.5c2.75,0,5.025,0,5.055,0
		s2.303,0,5.053,0h72.838C230.195,55.198,232.267,57.197,232.049,59.641z" fill="#7572D5"/>
    </g>
    <g id="redux" transform="scale(0.17) translate(24, 26)">
        <path d="M177.381 169.733c9.447-.978 16.614-9.122 16.288-18.896-.325-9.773-8.47-17.592-18.243-17.592h-.651c-10.1.326-17.918 8.796-17.592 18.895.326 4.887 2.28 9.122 5.212 12.054-11.076 21.828-28.016 37.791-53.426 51.148-17.266 9.122-35.183 12.38-53.1 10.1-14.66-1.955-26.062-8.47-33.23-19.222-10.424-15.963-11.401-33.23-2.605-50.496 6.19-12.38 15.962-21.502 22.152-26.063-1.303-4.235-3.258-11.402-4.235-16.614-47.237 34.207-42.35 80.468-28.016 102.295 10.75 16.29 32.577 26.389 56.684 26.389 6.515 0 13.03-.652 19.546-2.28 41.699-8.145 73.299-32.905 91.216-69.718zm57.336-40.397c-24.759-28.995-61.245-44.958-102.944-44.958h-5.212c-2.932-5.864-9.122-9.774-15.963-9.774h-.652C99.848 74.93 92.03 83.4 92.355 93.5c.326 9.773 8.47 17.592 18.243 17.592h.651c7.167-.326 13.357-4.887 15.963-11.077h5.864c24.759 0 48.214 7.167 69.39 21.176 16.288 10.751 28.016 24.76 34.531 41.7 5.538 13.683 5.212 27.04-.652 38.443-9.121 17.266-24.432 26.714-44.63 26.714-13.031 0-25.41-3.91-31.926-6.842-3.583 3.258-10.099 8.47-14.66 11.729 14.009 6.515 28.343 10.099 42.025 10.099 31.274 0 54.404-17.267 63.2-34.533 9.447-18.896 8.795-51.474-15.637-79.165zM69.225 175.27c.326 9.774 8.47 17.592 18.243 17.592h.652c10.099-.325 17.917-8.796 17.591-18.895-.325-9.774-8.47-17.592-18.243-17.592h-.651c-.652 0-1.63 0-2.28.325-13.357-22.153-18.895-46.26-16.94-72.323 1.302-19.547 7.818-36.488 19.22-50.497 9.447-12.054 27.69-17.918 40.07-18.243 34.531-.652 49.19 42.351 50.168 59.618 4.235.977 11.402 3.258 16.289 4.887C189.434 27.366 156.857 0 125.584 0c-29.32 0-56.359 21.176-67.11 52.451-14.985 41.7-5.212 81.771 13.031 113.372-1.628 2.28-2.606 5.864-2.28 9.448z"
              fill="#7572D5"
        />
    </g>
    <g id="react">
        <g clip-path="url(#clip0_20_1854)">
            <path d="M47.8125 25C47.8125 22.0833 44.6875 19.375 39.4792 17.5L38.5417 17.1875V16.7708C39.6875 11.0416 38.8542 6.7708 36.25 5.2083C33.6458 3.6458 29.7917 5.10414 25.625 8.74997L25 9.37497L24.7917 9.16664H24.5833C20.3125 5.2083 16.1458 3.85414 13.5417 5.31247C10.9375 6.7708 10.2083 10.8333 11.25 16.1458C11.3596 16.4838 11.4295 16.8333 11.4583 17.1875L10.3125 17.6041C5.20833 19.375 2.1875 22.0833 2.1875 25C2.1875 27.9166 5.52083 30.8333 10.7292 32.7083L11.4583 32.9166C11.3296 33.2854 11.2593 33.672 11.25 34.0625C10.2083 39.2708 11.1458 43.2291 13.5417 44.6875C15.9375 46.1458 20.3125 44.7916 24.4792 41.1458L25.1042 40.625L25.9375 41.4583C28.8542 43.9583 31.7708 45.3125 34.0625 45.3125C34.8708 45.3309 35.6671 45.1137 36.3542 44.6875C38.9583 43.2291 39.8958 38.9583 38.75 33.5416V33.3333C38.705 33.1619 38.6702 32.988 38.6458 32.8125H38.9583C44.4792 30.8333 47.8125 28.0208 47.8125 25ZM44.7917 25C44.7917 26.25 42.5 28.4375 38.0208 29.8958H37.8125C37.2664 28.2202 36.6051 26.5843 35.8333 25C36.5625 23.3333 37.1875 21.6666 37.7083 20.1041L38.5417 20.3125C42.7083 21.7708 44.7917 23.75 44.7917 25ZM27.9167 39.1666L27.0833 38.5416C28.2761 37.2201 29.3891 35.8287 30.4167 34.375L35.7292 33.5416C35.8333 33.75 35.8333 33.9583 35.9375 34.0625C36.3087 35.9492 36.379 37.8829 36.1458 39.7916C35.9995 40.7045 35.5608 41.5452 34.8958 42.1875C33.8542 42.8125 31.0417 41.9791 27.9167 39.1666ZM26.5625 34.5833L25.1042 36.4583L23.4375 34.5833H26.5625ZM12.2917 20C12.8152 21.7174 13.4771 23.3895 14.2708 25C13.4765 26.646 12.8146 28.3528 12.2917 30.1041L11.6667 29.8958C9.84256 29.3201 8.1454 28.4008 6.66667 27.1875C6.28377 26.9455 5.95605 26.6257 5.7048 26.2488C5.45356 25.872 5.2844 25.4465 5.20833 25C5.20833 23.75 7.29167 21.7708 11.25 20.4166L12.2917 20ZM23.4375 15.4166L25 13.6458L26.5625 15.4166H23.4375ZM34.8958 7.81247C36.0417 8.43747 36.6667 11.5625 35.7292 16.1458C35.734 16.2022 35.7272 16.2591 35.7093 16.3128C35.6914 16.3665 35.6627 16.416 35.625 16.4583L30.4167 15.625C29.3891 14.1712 28.2761 12.7799 27.0833 11.4583L27.7083 10.9375C31.0417 8.0208 33.75 7.18747 34.8958 7.81247ZM17.5 18.8541L16.6667 20.2083L15.9375 21.5625C15.625 20.8333 15.4167 20.1041 15.1042 19.2708L17.5 18.8541ZM15.1042 30.7291C15.4167 30 15.625 29.2708 15.9375 28.4375L16.6667 29.7916L17.5 31.1458L15.1042 30.7291ZM32.5 25C31.9699 26.142 31.3788 27.2548 30.7292 28.3333C30.1042 29.4791 29.375 30.5208 28.75 31.5625H21.25C20.5208 30.4166 19.7917 29.375 19.2708 28.3333C18.6161 27.2577 18.0248 26.1447 17.5 25C18.0054 23.8458 18.5974 22.7315 19.2708 21.6666C19.8693 20.5874 20.5301 19.544 21.25 18.5416C23.7457 18.3334 26.2543 18.3334 28.75 18.5416C29.4792 19.5833 30.1042 20.625 30.7292 21.6666C31.4026 22.7315 31.9946 23.8458 32.5 25ZM33.3333 20.2083L32.5 18.8541L34.8958 19.375C34.6639 20.1208 34.3856 20.8514 34.0625 21.5625L33.3333 20.2083ZM32.5 31.1458L33.3333 29.7916L34.0625 28.3333L35 30.7291L32.5 31.1458ZM22.8125 11.3541H22.9167L19.5833 15.5208L14.375 16.3541C14.2708 16.0416 14.2708 15.8333 14.1667 15.5208C13.3333 11.25 13.9583 8.3333 15 7.81247C15.2766 7.63082 15.61 7.55672 15.9375 7.60414C17.3958 7.60414 19.8958 8.6458 22.7083 11.1458L22.8125 11.3541ZM14.1667 34.5833C14.1857 34.2617 14.256 33.9452 14.375 33.6458L19.6875 34.375C20.689 35.8481 21.8034 37.2412 23.0208 38.5416L22.8125 38.75L22.6042 38.9583C21.184 40.2738 19.5211 41.2999 17.7083 41.9791C17.3107 42.1874 16.875 42.3133 16.4275 42.3491C15.98 42.3849 15.5299 42.3299 15.1042 42.1875C13.9583 41.5625 13.3333 38.75 14.1667 34.5833Z"
                  fill="#7572D5"/>
            <path d="M25 20.4166C24.0894 20.3959 23.1932 20.647 22.4259 21.1379C21.6586 21.6287 21.0549 22.3371 20.692 23.1726C20.3291 24.008 20.2233 24.9327 20.3882 25.8285C20.5532 26.7243 20.9812 27.5507 21.6179 28.2022C22.2545 28.8536 23.0709 29.3006 23.9627 29.4861C24.8545 29.6715 25.7813 29.587 26.6249 29.2434C27.4685 28.8998 28.1905 28.3126 28.6989 27.5568C29.2073 26.801 29.4789 25.9108 29.4792 24.9999C29.4795 23.8022 29.0109 22.6519 28.1738 21.7953C27.3366 20.9387 26.1974 20.4438 25 20.4166Z"
                  fill="#7572D5"/>
        </g>
        <defs>
            <clipPath id="clip0_20_1854">
                <rect width="50" height="50" fill="white"/>
            </clipPath>
        </defs>
    </g>
    <g id="javascript" role="img" xmlns="http://www.w3.org/2000/svg">
        <path d="M0 0h24v24H0V0zm22.034 18.276c-.175-1.095-.888-2.015-3.003-2.873-.736-.345-1.554-.585-1.797-1.14-.091-.33-.105-.51-.046-.705.15-.646.915-.84 1.515-.66.39.12.75.42.976.9 1.034-.676 1.034-.676 1.755-1.125-.27-.42-.404-.601-.586-.78-.63-.705-1.469-1.065-2.834-1.034l-.705.089c-.676.165-1.32.525-1.71 1.005-1.14 1.291-.811 3.541.569 4.471 1.365 1.02 3.361 1.244 3.616 2.205.24 1.17-.87 1.545-1.966 1.41-.811-.18-1.26-.586-1.755-1.336l-1.83 1.051c.21.48.45.689.81 1.109 1.74 1.756 6.09 1.666 6.871-1.004.029-.09.24-.705.074-1.65l.046.067zm-8.983-7.245h-2.248c0 1.938-.009 3.864-.009 5.805 0 1.232.063 2.363-.138 2.711-.33.689-1.18.601-1.566.48-.396-.196-.597-.466-.83-.855-.063-.105-.11-.196-.127-.196l-1.825 1.125c.305.63.75 1.172 1.324 1.517.855.51 2.004.675 3.207.405.783-.226 1.458-.691 1.811-1.411.51-.93.402-2.07.397-3.346.012-2.054 0-4.109 0-6.179l.004-.056z"
              fill="#7572D5" transform="scale(1.65) translate(3,3)"/>
    </g>
    <g id="typescript">
        <path d="M5 25V45H45V5H5V25ZM37.235 23.4067C38.2517 23.66 39.025 24.1117 39.7367 24.8483C40.105 25.2417 40.6517 25.9583 40.695 26.1317C40.7083 26.1817 38.9683 27.3483 37.915 28.0033C37.8767 28.0283 37.7233 27.8633 37.5533 27.61C37.0367 26.86 36.4983 26.5367 35.6733 26.48C34.46 26.3967 33.68 27.0317 33.6867 28.0917C33.6756 28.3523 33.7343 28.6112 33.8567 28.8417C34.1233 29.3933 34.62 29.725 36.1733 30.3967C39.0383 31.63 40.2633 32.4417 41.025 33.5967C41.875 34.885 42.0667 36.9433 41.4883 38.4733C40.855 40.1367 39.28 41.2667 37.0633 41.64C36.3783 41.7617 34.7533 41.7433 34.0167 41.61C32.41 41.3233 30.8867 40.53 29.9467 39.4883C29.5783 39.0833 28.86 38.0217 28.905 37.9467C28.9233 37.92 29.0883 37.8183 29.2717 37.7117C29.4517 37.61 30.1233 37.2217 30.7583 36.8533L31.9083 36.1867L32.15 36.5433C32.4867 37.0567 33.2217 37.7617 33.6667 37.9967C34.9433 38.67 36.695 38.575 37.5583 37.8C37.7319 37.6538 37.8694 37.4693 37.9599 37.2612C38.0504 37.053 38.0915 36.8267 38.08 36.6C38.08 36.1367 38.0217 35.9333 37.78 35.5833C37.47 35.14 36.835 34.7667 35.0317 33.9833C32.9683 33.095 32.08 32.5433 31.2667 31.6667C30.759 31.0881 30.3841 30.4055 30.1683 29.6667C30.0167 29.1017 29.9783 27.685 30.0983 27.115C30.5233 25.12 32.0283 23.7317 34.2 23.3183C34.905 23.185 36.5433 23.235 37.235 23.4067ZM27.845 25.0767L27.8583 26.715H22.65V41.5083H18.9667V26.715H13.7633V25.1083C13.7633 24.2183 13.7817 23.475 13.8067 23.4583C13.8267 23.4317 16.995 23.4183 20.835 23.425L27.8267 23.445L27.845 25.0767Z"
              fill="#7572D5"/>
    </g>
    <g id="unittests" transform="scale(10) translate=(-5, 5)">
        <path id="Shape"
              d="M40.7095 40.7137C39.6067 41.8355 37.8004 41.8355 36.6785 40.7137L31.5257 35.5608L31.6398 31.6439L35.5567 31.5298L40.7095 36.6827C41.8314 37.8044 41.8314 39.6108 40.7095 40.7137Z"
              fill="#7572D5"/>
        <path id="Shape_2"
              d="M40.7095 40.7104C39.6067 41.8323 37.8004 41.8323 36.6785 40.7104L31.5257 35.5575L31.6398 31.6406L40.7095 40.7104Z"
              fill="#7572D5"/>
        <path id="Shape_3"
              d="M35.5549 31.5282L31.524 35.5592L27.398 31.4332C27.0367 31.072 27.0367 30.4635 27.398 30.1022L30.0979 27.4023C30.4592 27.041 31.0676 27.041 31.4289 27.4023L35.5549 31.5282Z"
              fill="#7572D5"/>
        <path id="Shape_4"
              d="M33.5395 33.543L31.524 35.5585L27.398 31.4325C27.0367 31.0712 27.0367 30.4628 27.398 30.1015L28.748 28.7515L33.5395 33.543Z"
              fill="#7572D5"/>
        <path id="Shape_5"
              d="M30.1969 12.7416C25.3673 7.89301 17.5715 7.91208 12.7418 12.7416C7.89325 17.5712 7.91233 25.3669 12.7418 30.1965C17.5715 35.0452 25.3672 35.0262 30.1969 30.1965C35.0454 25.367 35.0264 17.5712 30.1969 12.7416Z"
              fill="#7572D5"/>
        <path id="Shape_6"
              d="M30.1968 30.1971C25.3671 35.0268 17.5714 35.0458 12.7417 30.1971C7.91221 25.3676 7.89313 17.5718 12.7417 12.7422L30.1968 30.1971Z"
              fill="#7572D5"/>
        <path id="Shape_7"
              d="M28.862 28.8664C24.7739 32.9544 18.1571 32.9544 14.069 28.8664C9.981 24.7783 9.981 18.1615 14.069 14.0734C18.1571 9.9853 24.7739 9.9853 28.862 14.0734C32.9499 18.1615 32.9499 24.7784 28.862 28.8664Z"
              fill="#7572D5"/>
        <path id="Shape_8"
              d="M28.1236 18.7869V15.7637C28.1236 15.2312 27.7053 14.813 27.1729 14.813H23.37C22.8376 14.813 22.4193 15.2312 22.4193 15.7637C22.4193 16.296 22.0011 16.7144 21.4686 16.7144C20.9362 16.7144 20.5179 16.296 20.5179 15.7637C20.5179 15.2312 20.0997 14.813 19.5672 14.813H15.7644C15.4982 14.813 15.27 14.9271 15.0799 15.0792C14.9277 15.2693 14.8137 15.4974 14.8137 15.7637V18.7869C13.7108 19.1671 12.9123 20.2319 12.9123 21.4679C12.9123 22.7038 13.7108 23.7686 14.8137 24.1488V27.1721C14.8137 27.7045 15.2319 28.1228 15.7644 28.1228H19.5672C20.0997 28.1228 20.5179 27.7045 20.5179 27.1721C20.5179 26.6397 20.9362 26.2214 21.4686 26.2214C22.0011 26.2214 22.4193 26.6397 22.4193 27.1721C22.4193 27.7045 22.8376 28.1228 23.37 28.1228H27.1729C27.4391 28.1228 27.6672 28.0088 27.8574 27.8566C28.0095 27.6666 28.1236 27.4384 28.1236 27.1721V24.1488C29.2264 23.7686 30.025 22.7038 30.025 21.4679C30.025 20.2319 29.2264 19.1671 28.1236 18.7869Z"
              fill="#252527"/>
        <path id="Shape_9"
              d="M15.08 15.0815L27.8574 27.8589C27.6673 28.0111 27.4391 28.1251 27.1729 28.1251H23.37C22.8376 28.1251 22.4193 27.7068 22.4193 27.1744C22.4193 26.642 22.0011 26.2237 21.4686 26.2237C20.9362 26.2237 20.5179 26.642 20.5179 27.1744C20.5179 27.7068 20.0997 28.1251 19.5672 28.1251H15.7644C15.2319 28.1251 14.8137 27.7068 14.8137 27.1744V24.1511C13.7108 23.7709 12.9123 22.7061 12.9123 21.4702C12.9123 20.2342 13.7108 19.1694 14.8137 18.7892V15.766C14.8138 15.4999 14.9278 15.2717 15.08 15.0815Z"
              fill="#252527"/>
    </g>
    <g id="jest" transform="scale(0.15) translate(24, 30)">
        <path d="M239.553 138.96c0-14.508-11.762-26.27-26.27-26.27-.934 0-1.854.05-2.762.146l36.082-106.42H93.267l36.032 106.327a26.318 26.318 0 0 0-1.597-.052c-14.508 0-26.27 11.76-26.27 26.27 0 11.727 7.686 21.656 18.293 25.034-5.602 9.704-12.652 18.445-20.656 25.997-10.884 10.267-23.34 18.053-36.812 22.85-16.04-8.24-23.614-26.565-16.78-42.632.772-1.815 1.56-3.654 2.313-5.485 11.62-2.712 20.28-13.129 20.28-25.576 0-14.509-11.762-26.27-26.271-26.27s-26.27 11.761-26.27 26.27c0 8.897 4.426 16.756 11.193 21.508-6.502 14.804-16.06 30.298-19.038 48.255-3.569 21.52-.012 44.364 18.601 57.265 43.348 30.044 90.402-18.625 140.014-30.86 17.98-4.433 37.717-3.719 53.558-12.893 11.896-6.89 19.739-18.309 21.964-31.128 2.2-12.664-1.006-25.273-8.378-35.497a26.158 26.158 0 0 0 6.11-16.839"
              fill="#252527"/>
        <path d="M235.5 190.198c-1.932 11.13-8.806 20.851-18.858 26.674-9.371 5.427-20.6 7.047-32.49 8.761-6.369.918-12.955 1.869-19.389 3.455-17.012 4.195-33.49 12.38-49.424 20.295-31.89 15.84-59.43 29.518-85.398 11.52-19.022-13.183-18.144-37.575-15.928-50.941 2.054-12.384 7.607-23.789 12.976-34.818a796.621 796.621 0 0 0 2.722-5.634 32.453 32.453 0 0 0 8.443 2.118c-5.466 18.039 3.13 37.653 21.171 46.921l2.47 1.269 2.614-.931c14.263-5.08 27.406-13.23 39.063-24.229 7.535-7.109 14.014-14.974 19.339-23.378a32.8 32.8 0 0 0 4.891.367c16.559 0 30.271-12.379 32.393-28.367 6.778-.248 13.977-.25 20.794-.002 2.12 15.99 15.834 28.37 32.393 28.37 6.924 0 13.346-2.17 18.637-5.856 3.673 7.519 5.044 15.979 3.581 24.406zM41.8 119.295c10.948 0 19.854 8.907 19.854 19.855 0 3.932-1.154 7.599-3.135 10.687-3.3 5.147-8.91 8.675-15.355 9.115-.451.03-.906.052-1.364.052-2.44 0-4.777-.445-6.938-1.253a19.967 19.967 0 0 1-10.305-8.777 19.725 19.725 0 0 1-2.612-9.824c0-10.948 8.907-19.855 19.855-19.855zm66.049 19.666c0-9.947 7.353-18.206 16.907-19.634.962-.145 1.946-.22 2.947-.22 6.365 0 12.032 3.015 15.666 7.687a19.88 19.88 0 0 1 2.318 3.765 19.73 19.73 0 0 1 1.87 8.402c0 1.587-.192 3.13-.545 4.61-1.935 8.1-8.842 14.292-17.306 15.144-.658.066-1.326.1-2.003.1a19.734 19.734 0 0 1-10.76-3.181c-5.466-3.541-9.094-9.69-9.094-16.673zm82.865-23.61a32.721 32.721 0 0 0-8.991 15.117 304.792 304.792 0 0 0-22.458 0c-1.68-6.232-5.162-11.73-9.847-15.906l20.545-41.542zM102.216 12.834h135.437l-31.989 94.345a32.479 32.479 0 0 0-4.051 1.255l-31.6-64.463-31.69 64.078a32.502 32.502 0 0 0-4.226-1.139zm130.92 126.128c0 1.99-.297 3.912-.844 5.727a19.933 19.933 0 0 1-7.653 10.545 19.74 19.74 0 0 1-11.357 3.582c-9.167 0-16.9-6.247-19.174-14.707a19.803 19.803 0 0 1-.68-5.147c0-2.714.548-5.302 1.538-7.66a19.848 19.848 0 0 1 1.878-3.442c3.573-5.274 9.602-8.752 16.438-8.752.627 0 1.245.032 1.858.09 10.08.939 17.997 9.442 17.997 19.764zm12.833 0c0-15.958-11.498-29.273-26.642-32.117L255.553 0H84.318L120.6 107.061c-14.618 3.253-25.583 16.316-25.583 31.9 0 11.702 6.184 21.98 15.452 27.756-4.458 6.642-9.744 12.892-15.802 18.608-9.608 9.063-20.311 15.937-31.85 20.46-11.623-7.301-16.536-21.07-11.434-33.064l.4-.94.75-1.764c12.766-4.453 21.953-16.603 21.953-30.867 0-18.024-14.663-32.687-32.686-32.687S9.112 121.126 9.112 139.15c0 9.097 3.74 17.335 9.758 23.267a552.73 552.73 0 0 1-3.418 7.11c-5.503 11.301-11.739 24.11-14.098 38.335-4.684 28.25 2.872 50.833 21.277 63.588 11.168 7.74 22.51 10.784 33.923 10.784 21.49 0 43.23-10.797 64.493-21.359 15.313-7.605 31.148-15.47 46.789-19.328 5.82-1.435 11.808-2.299 18.148-3.213 12.573-1.814 25.573-3.689 37.089-10.358 13.349-7.732 22.486-20.702 25.07-35.582 2.218-12.775-.451-25.57-6.961-36.422a32.488 32.488 0 0 0 4.787-17.011z"
              fill="#7572D5"/>
    </g>
    <g id="materialui" transform="scale(0.07) translate(50, 150)">
        <path d="M0 259.8V0l225 129.9v86.6L75 129.9v173.2z" fill="#7572D5"/><path d="M225 129.9L450 0v259.8l-150 86.6-75-43.3 150-86.6v-86.6l-150 86.6z" fill="#7572D5"/><path d="M225 303.1v86.6l150 86.6v-86.6z" fill="#7572D5"/><path d="M375 476.3l225-129.9V173.2l-75 43.3v86.6l-150 86.6zm150-346.4V43.3L600 0v86.6z" fill="#7572D5"/>
    </g>
    <g id="bootstrap">
        <path d="M 12.138672 7 C 9.6276719 7 7.7705156 9.2570781 7.8535156 11.705078 C 7.9335156 14.056078 7.8290312 17.102938 7.0820312 19.585938 C 6.3340313 22.076937 5.068 23.651516 3 23.853516 L 3 26.146484 C 5.068 26.348484 6.3340312 27.923062 7.0820312 30.414062 C 7.8290312 32.897063 7.9325156 35.943922 7.8535156 38.294922 C 7.7705156 40.742922 9.6276719 43 12.138672 43 L 37.865234 43 C 40.376234 43 42.233391 40.742922 42.150391 38.294922 C 42.070391 35.943922 42.173922 32.897063 42.919922 30.414062 C 43.668922 27.923063 44.932 26.348484 47 26.146484 L 47 23.853516 C 44.932 23.651516 43.668922 22.076937 42.919922 19.585938 C 42.172922 17.102937 42.070391 14.056078 42.150391 11.705078 C 42.232391 9.2570781 40.374281 7 37.863281 7 L 12.138672 7 z M 12.138672 9 L 37.863281 9 C 38.596281 9 39.105344 9.3658281 39.402344 9.6738281 C 39.902344 10.190828 40.175391 10.906719 40.150391 11.636719 C 40.071391 13.966719 40.154906 17.336156 41.003906 20.160156 C 41.783906 22.756156 43.011203 24.21 44.283203 25 C 43.012203 25.79 41.784906 27.244844 41.003906 29.839844 C 40.154906 32.663844 40.071391 36.033281 40.150391 38.363281 C 40.175391 39.093281 39.902344 39.808172 39.402344 40.326172 C 39.105344 40.634172 38.596281 41 37.863281 41 L 12.138672 41 C 11.405672 41 10.898563 40.634172 10.601562 40.326172 C 10.101562 39.809172 9.8285156 39.093281 9.8535156 38.363281 C 9.9325156 36.033281 9.8470469 32.663844 8.9980469 29.839844 C 8.2180469 27.244844 6.99075 25.79 5.71875 25 C 6.99075 24.21 8.2180469 22.755156 8.9980469 20.160156 C 9.8470469 17.336156 9.9325156 13.966719 9.8535156 11.636719 C 9.8285156 10.906719 10.101562 10.190828 10.601562 9.6738281 C 10.898563 9.3658281 11.405672 9 12.138672 9 z M 17.867188 15.632812 L 17.867188 34.365234 L 25.576172 34.365234 C 27.579172 34.365234 29.242766 33.877172 30.384766 32.951172 C 31.528766 32.024172 32.132813 30.675781 32.132812 29.050781 C 32.132812 26.596781 30.388062 24.752172 27.789062 24.451172 L 27.789062 24.421875 C 29.700063 24.091875 31.191406 22.301125 31.191406 20.328125 C 31.191406 18.933125 30.655625 17.752109 29.640625 16.912109 C 28.629625 16.075109 27.209156 15.632812 25.535156 15.632812 L 17.867188 15.632812 z M 20.919922 18.083984 L 24.822266 18.083984 C 26.963266 18.083984 28.142578 19.022516 28.142578 20.728516 C 28.141578 22.559516 26.741219 23.568359 24.199219 23.568359 L 20.919922 23.568359 L 20.919922 18.083984 z M 20.919922 25.863281 L 24.794922 25.863281 C 27.594922 25.863281 29.015625 26.876094 29.015625 28.871094 C 29.015625 30.864094 27.614797 31.917969 24.966797 31.917969 L 20.919922 31.917969 L 20.919922 25.863281 z" fill="#7572D5"/>
    </g>
    <g id="styledComponents">
        <path d="M37.2591 6.25L36.9888 7.64963C36.5708 10.3021 36.7221 11.061 37.8682 12.0454L38.9747 12.9546L37.8286 18.0305C37.1438 21.0588 36.3041 23.5968 35.7707 24.4308C35.313 25.1503 34.7796 26.2099 34.6642 26.7791C34.4732 27.4592 33.8245 28.1429 32.8334 28.7478C31.9576 29.2418 30.2385 30.5663 29.0203 31.6294C28.0472 32.4993 27.3769 33.0326 27.0129 33.2617L25.8235 34.196C25.4415 34.8046 25.2253 35.295 25.1424 35.6672C25.0595 36.0503 25.1063 36.3044 25.2289 36.4905C25.3478 36.6695 25.5532 36.7948 25.8343 36.8736C26.1671 36.951 26.5097 36.9788 26.8507 36.9559C27.6222 36.9035 28.3858 36.7691 29.1284 36.555C29.3807 36.487 29.5789 36.4225 29.7519 36.3653C30.0186 36.0395 30.6349 35.4238 31.7269 34.3535C34.6246 31.5149 35.731 29.9613 34.5885 30.3802C34.1669 30.5305 34.3579 30.1511 35.0823 29.3922C36.6104 27.9138 37.4862 25.6801 39.317 18.6748C40.7659 13.1443 40.7659 13.0656 41.8327 13.0656C42.3336 13.0656 43.75 13.1515 43.75 13.1515V6.25H40.4992H37.2591ZM24.4216 18.0806C23.3692 18.0735 21.1058 19.6664 14.3303 25.1611C14.0383 25.8519 14.0131 26.328 14.1464 26.6359C14.2329 26.8471 14.3915 26.9938 14.6114 27.1012C14.8276 27.2086 15.1087 27.2731 15.4187 27.2981C16.035 27.3518 16.763 27.2552 17.3504 27.1406L17.7469 27.0511C17.8826 26.8704 18.0608 26.7254 18.2659 26.6287C18.6839 26.3996 20.4391 24.8103 22.1943 23.1064C25.2829 19.9993 26.0073 18.5961 24.7495 18.1415C24.6463 18.1007 24.5326 18.08 24.4216 18.0806ZM32.336 20.2391C31.4098 20.2642 29.7411 21.3309 26.8831 23.5968C25.4487 24.753 24.5405 25.3759 24.0539 25.5047L22.1654 26.9867C21.4554 28.2753 21.3509 29.0736 21.5383 29.5139C21.5852 29.6225 21.6533 29.7208 21.7387 29.8031C21.8241 29.8855 21.925 29.9502 22.0357 29.9936C22.311 30.1015 22.6046 30.1562 22.9006 30.1546C23.608 30.1471 24.3112 30.0448 24.991 29.8504C25.3453 29.7559 25.6952 29.6461 26.0398 29.521L26.1443 29.4781L26.3353 29.3779C26.6957 28.9161 27.5246 28.0462 28.5626 27.044C31.8423 23.9011 33.5181 21.6674 33.1758 20.8333C33.0208 20.4288 32.7541 20.2248 32.336 20.2391ZM23.5998 24.1051C23.3331 24.1337 22.7349 24.5919 21.6573 25.5298C20.1003 26.8972 18.4028 27.6847 17.8154 27.3339C17.6788 27.3645 17.5419 27.3932 17.4045 27.4198C16.8062 27.5379 16.0602 27.6346 15.3934 27.5809C15.0793 27.562 14.7714 27.4855 14.4852 27.3554C14.2153 27.2328 13.9999 27.0164 13.8797 26.7468C13.7464 26.4247 13.7464 26.0238 13.8978 25.5119L11.5551 27.4234L6.2536 31.7798V38.8424L23.6251 25.2506C23.6217 25.1018 23.6411 24.9533 23.6827 24.8103C23.8161 24.3306 23.8089 24.0872 23.5998 24.1087V24.1051ZM31.0746 26.3925C30.8115 26.3925 30.3718 26.7612 29.669 27.5021C28.714 28.5152 27.2111 29.496 26.4146 29.6964L26.292 29.7609C26.1613 29.8145 26.0291 29.8646 25.8956 29.9112C25.6794 29.9828 25.3982 30.0687 25.0739 30.1546C24.4252 30.33 23.6179 30.4911 22.897 30.4732C22.5572 30.4728 22.2207 30.4072 21.9059 30.2799C21.6093 30.1585 21.3716 29.9275 21.2428 29.6356C21.0338 29.138 21.1167 28.44 21.5744 27.4485L6.25 39.4366V43.75H12.9823L27.2615 32.6103C27.6327 32.2022 28.1914 31.6438 28.9446 30.9457C30.9629 29.0879 31.4206 28.4472 31.4206 27.4986C31.4206 26.7612 31.3377 26.3889 31.0746 26.3889V26.3925ZM34.4732 33.3727L33.2514 34.5826C32.5667 35.2269 31.3449 36.0216 30.5088 36.3617L30.343 36.4333L30.3322 36.4512L30.2961 36.487C30.2637 36.512 30.2493 36.5156 30.2241 36.5263C29.8903 36.6518 29.5512 36.7629 29.2077 36.8592C28.4441 37.08 27.6586 37.218 26.8651 37.2709C26.4899 37.2948 26.1132 37.2622 25.7478 37.1743C25.4307 37.1049 25.1508 36.9213 24.9622 36.6588C24.7892 36.3939 24.7387 36.0395 24.836 35.6028C24.9134 35.2919 25.0284 34.9914 25.1784 34.7079L13.6563 43.75H28.9807L30.8115 41.6667C33.3271 38.7529 34.4732 36.6695 34.4732 34.8869V33.3727Z"
              fill="#7572D5"/>
    </g>
    <g id="webdesign">
        <path d="M17.7083 4.16663C14.2565 4.16663 11.4583 6.96486 11.4583 10.4166C11.4583 13.8684 14.2565 16.6666 17.7083 16.6666H32.2916C35.7435 16.6666 38.5416 13.8684 38.5416 10.4166C38.5416 6.96486 35.7435 4.16663 32.2916 4.16663H17.7083Z"
              fill="#7572D5"/>
        <path d="M32.2917 18.75C28.8398 18.75 26.0417 21.5481 26.0417 25C26.0417 28.4519 28.8398 31.25 32.2917 31.25C35.7436 31.25 38.5417 28.4519 38.5417 25C38.5417 21.5481 35.7436 18.75 32.2917 18.75Z"
              fill="#7572D5"/>
        <path d="M11.4583 25C11.4583 21.5481 14.2565 18.75 17.7083 18.75H23.9583V31.25H17.7083C14.2565 31.25 11.4583 28.4519 11.4583 25Z"
              fill="#7572D5"/>
        <path d="M17.7083 33.3334C14.2565 33.3334 11.4583 36.1315 11.4583 39.5834C11.4583 43.0352 14.2565 45.8334 17.7083 45.8334C21.1602 45.8334 23.9583 43.0352 23.9583 39.5834V33.3334H17.7083Z"
              fill="#7572D5"/>
    </g>
    <!--//social-->
    <g id="instagram">
        <path d="M15.6516 2.09998H5.34844C3.55687 2.09998 2.1 3.55628 2.1 5.34715V8.77799V15.6528C2.1 17.4437 3.55687 18.9 5.34844 18.9H15.6516C17.4431 18.9 18.9 17.4437 18.9 15.6528V8.77143V5.34058C18.8934 3.55628 17.4366 2.09998 15.6516 2.09998ZM16.5834 4.03516H16.9575V4.40251V6.88217L14.1159 6.88873L14.1094 4.04172L16.5834 4.03516ZM8.09812 8.77143C8.63625 8.03016 9.50906 7.53816 10.4934 7.53816C11.4778 7.53816 12.3506 8.0236 12.8887 8.77143C13.2431 9.25687 13.4466 9.85382 13.4466 10.4967C13.4466 12.1236 12.1209 13.4552 10.4869 13.4552C8.85281 13.4552 7.54031 12.1236 7.54031 10.4967C7.54031 9.85382 7.75031 9.25687 8.09812 8.77143ZM17.2594 15.6462C17.2594 16.5318 16.5375 17.2534 15.6516 17.2534H5.34844C4.4625 17.2534 3.74062 16.5318 3.74062 15.6462V8.77143H6.2475C6.03094 9.30279 5.90625 9.88662 5.90625 10.4967C5.90625 13.0288 7.96687 15.0887 10.5 15.0887C13.0331 15.0887 15.0937 13.0288 15.0937 10.4967C15.0937 9.88662 14.9691 9.30279 14.7525 8.77143H17.2594V15.6462Z"
              fill="currentColor"/>
    </g>
    <g id="linkedin">
        <path d="M5.80637 7.88635H2.53296V18.3626H5.80637V7.88635Z" fill="currentColor"/>
        <path d="M4.10079 2.94019C2.89376 2.94019 2.10001 3.72082 2.10001 4.75729C2.10001 5.77408 2.86752 6.57439 4.05487 6.57439H4.08111C5.31437 6.57439 6.08189 5.76752 6.07533 4.75729C6.04909 3.72082 5.30781 2.94019 4.10079 2.94019Z"
              fill="currentColor"/>
        <path d="M14.7476 7.78796C12.8714 7.78796 11.6972 8.81131 11.4807 9.53291V7.88636H7.8006C7.84652 8.75883 7.8006 18.3626 7.8006 18.3626H11.4807V12.7014C11.4807 12.3799 11.4676 12.065 11.5594 11.842C11.8087 11.2123 12.3532 10.5563 13.3306 10.5563C14.6098 10.5563 15.1871 11.5271 15.1871 12.9441V18.3626H18.9V12.5374C18.9 9.29675 17.0764 7.78796 14.7476 7.78796Z"
              fill="currentColor"/>
    </g>
    <g id="telegram">
        <path d="M18.9057 4.76449L16.3705 16.7208C16.1791 17.5644 15.6804 17.7745 14.9717 17.3772L11.1085 14.5305L9.24472 16.3235C9.0383 16.5299 8.86608 16.7022 8.46824 16.7022L8.74607 12.7681L15.9054 6.29885C16.2169 6.02162 15.8376 5.86741 15.4218 6.14524L6.57084 11.7186L2.76043 10.5257C1.93174 10.2671 1.91674 9.69701 2.93325 9.29917L17.837 3.55716C18.5271 3.29854 19.1308 3.71018 18.9057 4.76449Z"
              fill="currentColor"/>
    </g>
    <g id="git">
        <path d="M48.854 0C21.839 0 0 22 0 49.217c0 21.756 13.993 40.172 33.405 46.69 2.427.49 3.316-1.059 3.316-2.362 0-1.141-.08-5.052-.08-9.127-13.59 2.934-16.42-5.867-16.42-5.867-2.184-5.704-5.42-7.17-5.42-7.17-4.448-3.015.324-3.015.324-3.015 4.934.326 7.523 5.052 7.523 5.052 4.367 7.496 11.404 5.378 14.235 4.074.404-3.178 1.699-5.378 3.074-6.6-10.839-1.141-22.243-5.378-22.243-24.283 0-5.378 1.94-9.778 5.014-13.2-.485-1.222-2.184-6.275.486-13.038 0 0 4.125-1.304 13.426 5.052a46.97 46.97 0 0 1 12.214-1.63c4.125 0 8.33.571 12.213 1.63 9.302-6.356 13.427-5.052 13.427-5.052 2.67 6.763.97 11.816.485 13.038 3.155 3.422 5.015 7.822 5.015 13.2 0 18.905-11.404 23.06-22.324 24.283 1.78 1.548 3.316 4.481 3.316 9.126 0 6.6-.08 11.897-.08 13.526 0 1.304.89 2.853 3.316 2.364 19.412-6.52 33.405-24.935 33.405-46.691C97.707 22 75.788 0 48.854 0z"
              fill="currentColor"/>
    </g>
    <!--//other-->
    <g id="quote">
        <path d="M13.5417 20.8333C13.0771 20.8333 12.6312 20.9042 12.1875 20.9688C12.3312 20.4854 12.4792 19.9938 12.7167 19.5521C12.9542 18.9104 13.325 18.3542 13.6937 17.7938C14.0021 17.1875 14.5458 16.7771 14.9458 16.2583C15.3646 15.7542 15.9354 15.4188 16.3875 15C16.8312 14.5625 17.4125 14.3438 17.875 14.0354C18.3583 13.7583 18.7792 13.4521 19.2292 13.3063L20.3521 12.8438L21.3396 12.4333L20.3292 8.39584L19.0854 8.69584C18.6875 8.79584 18.2021 8.9125 17.65 9.05209C17.0854 9.15625 16.4833 9.44167 15.8125 9.70209C15.15 9.99792 14.3833 10.1979 13.6708 10.6729C12.9542 11.1271 12.1271 11.5063 11.3979 12.1146C10.6917 12.7417 9.83958 13.2854 9.21041 14.0833C8.52291 14.8292 7.84375 15.6125 7.31666 16.5042C6.70625 17.3542 6.29166 18.2875 5.85416 19.2104C5.45833 20.1333 5.13958 21.0771 4.87916 21.9938C4.38541 23.8313 4.16458 25.5771 4.07916 27.0708C4.00833 28.5667 4.05 29.8104 4.1375 30.7104C4.16875 31.1354 4.22708 31.5479 4.26875 31.8333L4.32083 32.1833L4.375 32.1708C4.74554 33.9017 5.59855 35.4924 6.83534 36.7587C8.07213 38.0251 9.64217 38.9154 11.3638 39.3267C13.0855 39.738 14.8884 39.6535 16.5641 39.083C18.2397 38.5124 19.7196 37.4792 20.8325 36.1027C21.9454 34.7262 22.6459 33.0628 22.853 31.3048C23.06 29.5468 22.7651 27.7662 22.0024 26.1688C21.2396 24.5714 20.0403 23.2226 18.543 22.2784C17.0458 21.3342 15.3118 20.8332 13.5417 20.8333ZM36.4583 20.8333C35.9937 20.8333 35.5479 20.9042 35.1042 20.9688C35.2479 20.4854 35.3958 19.9938 35.6333 19.5521C35.8708 18.9104 36.2417 18.3542 36.6104 17.7938C36.9188 17.1875 37.4625 16.7771 37.8625 16.2583C38.2812 15.7542 38.8521 15.4188 39.3042 15C39.7479 14.5625 40.3292 14.3438 40.7917 14.0354C41.275 13.7583 41.6958 13.4521 42.1458 13.3063L43.2687 12.8438L44.2562 12.4333L43.2458 8.39584L42.0021 8.69584C41.6042 8.79584 41.1187 8.9125 40.5667 9.05209C40.0021 9.15625 39.4 9.44167 38.7292 9.70209C38.0688 10 37.3 10.1979 36.5875 10.675C35.8708 11.1292 35.0438 11.5083 34.3146 12.1167C33.6083 12.7438 32.7562 13.2875 32.1271 14.0833C31.4396 14.8292 30.7604 15.6125 30.2333 16.5042C29.6229 17.3542 29.2083 18.2875 28.7708 19.2104C28.375 20.1333 28.0562 21.0771 27.7958 21.9938C27.3021 23.8313 27.0812 25.5771 26.9958 27.0708C26.925 28.5667 26.9667 29.8104 27.0542 30.7104C27.0854 31.1354 27.1437 31.5479 27.1854 31.8333L27.2375 32.1833L27.2917 32.1708C27.6622 33.9017 28.5152 35.4924 29.752 36.7587C30.9888 38.0251 32.5588 38.9154 34.2805 39.3267C36.0022 39.738 37.8051 39.6535 39.4807 39.083C41.1564 38.5124 42.6363 37.4792 43.7492 36.1027C44.8621 34.7262 45.5626 33.0628 45.7696 31.3048C45.9766 29.5468 45.6817 27.7662 44.919 26.1688C44.1563 24.5714 42.957 23.2226 41.4597 22.2784C39.9624 21.3342 38.2284 20.8332 36.4583 20.8333Z"
              fill="#7572D5"/>
    </g>
    <g id="arrow">
        <path d="m26.71 10.29-10-10a1 1 0 0 0-1.41 0l-10 10 1.41 1.41L15 3.41V32h2V3.41l8.29 8.29z"
              fill="#7572D5"/>
    </g>
</svg>
